<svg xmlns="http://www.w3.org/2000/svg" viewBox="0 0 100 100" width="40" height="40"><defs><linearGradient id="sg" x1="10" y1="90" x2="90" y2="10" gradientUnits="userSpaceOnUse"><stop offset="0" stop-color="#9945FF"/><stop offset="1" stop-color="#14F195"/></linearGradient></defs><circle cx="50" cy="50" r="50" fill="#131313"/><g transform="translate(20,28) scale(0.151)" fill="url(#sg)"><path d="M64.6 237.9c2.4-2.4 5.7-3.8 9.2-3.8h317.4c5.8 0 8.7 7 4.6 11.1l-62.7 62.7c-2.4 2.4-5.7 3.8-9.2 3.8H6.5c-5.8 0-8.7-7-4.6-11.1z"/><path d="M64.6 3.8C67.1 1.4 70.4 0 73.8 0h317.4c5.8 0 8.7 7 4.6 11.1l-62.7 62.7c-2.4 2.4-5.7 3.8-9.2 3.8H6.5c-5.8 0-8.7-7-4.6-11.1z"/><path d="M333.1 120.1c-2.4-2.4-5.7-3.8-9.2-3.8H6.5c-5.8 0-8.7 7-4.6 11.1l62.7 62.7c2.4 2.4 5.7 3.8 9.2 3.8h317.4c5.8 0 8.7-7 4.6-11.1z"/></g></svg>
