<svg xmlns="http://www.w3.org/2000/svg" viewBox="0 0 2000 2000" width="40" height="40"><circle cx="1000" cy="1000" r="1000" fill="#2775CA"/><path d="M1275 1158c0-146-88-196-263-217-125-16-150-50-150-108s42-96 125-96c75 0 117 25 138 88 4 12 16 20 29 20h67c16 0 29-12 29-29v-4c-17-92-92-162-188-171V525c0-17-12-29-33-33h-63c-16 0-29 12-33 33v96c-125 17-204 100-204 204 0 138 83 192 258 212 117 21 154 46 154 113s-58 112-138 112c-108 0-146-46-158-108-4-17-17-25-29-25h-71c-16 0-29 12-29 29v4c17 104 83 179 221 200v100c0 17 12 29 33 33h63c16 0 29-12 33-33v-100c125-21 208-108 208-221z" fill="#fff"/><path d="M788 1596c-325-117-492-479-371-800 62-175 200-308 371-371 16-8 25-21 25-42v-58c0-17-8-29-25-33-4 0-12 0-17 4-395 125-612 546-487 942 75 233 254 412 487 487 17 8 33 0 38-17 4-4 4-8 4-17v-58c0-12-12-29-25-37zm441-1300c-17-8-33 0-38 17-4 4-4 8-4 17v58c0 17 12 33 25 42 325 117 492 479 371 800-62 175-200 308-371 371-16 8-25 21-25 42v58c0 17 8 29 25 33 4 0 12 0 17-4 395-125 612-546 487-942-75-237-258-416-487-492z" fill="#fff"/></svg>
